64 1
0  5466 5467 5692  -1
1  5372 5443 3447  -1
2  3501 3541 4718  -1
3  8379 7586 20552  -1
4  17625 54055 54056  -1
5  15639 25826 36680  -1
6  3273 4983 4979  -1
7  5719 5493 67  -1
8  5005 4960 4964  -1
9  1669 1664 1686  -1
10  63738 17320 20873  -1
11  1649 1629 1643  -1
12  21055 36839 36846  -1
13  1664 1669 1649  -1
14  56327 32756 57181  -1
15  43755 10023 29171  -1
16  60788 10106 60792  -1
17  5418 5467 4822  -1
18  29022 63744 29024  -1
19  4963 5196 4960  -1
20  22985 54814 22984  -1
21  1669 1675 1654  -1
22  1686 1690 1669  -1
23  1626 1643 1629  -1
24  10364 87 4822  -1
25  3447 5196 5197  -1
26  5185 10744 4954  -1
27  1654 1635 1649  -1
28  10054 7935 3361  -1
29  63873 23517 63868  -1
30  5196 4963 5197  -1
31  1629 1649 1635  -1
32  1664 1643 1659  -1
33  5610 5558 5588  -1
34  1639 1659 1643  -1
35  5467 5493 5692  -1
36  5180 3368 5172  -1
37  6428 10336 11402  -1
38  22967 20918 8821  -1
39  1643 1664 1649  -1
40  10930 4823 4846  -1
41  4960 5005 4963  -1
42  43286 5963 20886  -1
43  1669 1654 1649  -1
44  87 10364 4959  -1
45  10364 10930 4959  -1
46  38920 29160 63979  -1
47  4846 4961 10930  -1
48  4979 4973 107  -1
49  65438 1695 1690  -1
50  4849 103 4846  -1
51  29218 29213 29219  -1
52  28933 15332 28934  -1
53  5719 5692 5493  -1
54  5372 5528 5443  -1
55  65442 1619 1639  -1
56  1675 1695 65438  -1
57  1626 1619 65442  -1
58  63942 15380 63943  -1
59  1626 1643 65442  -1
60  65442 1643 1639  -1
61  1675 1669 65438  -1
62  65438 1669 1690  -1
63  28955 29023 65443  -1
