16  3  0  0
   0    0.53472024499999993  0.10173180000000001  0.19791059999999999
   1    0.54269226949999994  0.095740950000000005  0.19791520000000001
   2    0.54269226949999994  0.10173180000000001  0.19791059999999999
   3    0.53687056637463826  0.1017238  0.2039184
   4    0.53687056637463826  0.10771750000000001  0.20391640000000003
   5    0.54479361488925737  0.095740950000000005  0.19791520000000001
   6    0.54488632200963616  0.10173180000000001  0.19791059999999999
   7    0.54538943272141027  0.1077268  0.1979061
   8    0.5406342854948939  0.10772160883166769  0.20126099021803481
   9    0.53843885048854112  0.11004368724049234  0.21215794545352806
  10    0.53611974652301608  0.10090362150748808  0.21149240979297632
  11    0.54860946886332407  0.10193937568946206  0.20605005447190952
  12    0.54448245364559722  0.093307058731510004  0.20241750720282756
  13    0.55017482726624167  0.096982129524110186  0.19953219192238592
  14    0.53930089581295815  0.094343837395480357  0.20844750092128234
  15    0.54212220265923194  0.11030255715797188  0.20643920061335802
# Generated by 
